<svg t="1751457473922" class="icon" viewBox="0 0 1024 1024" version="1.1" xmlns="http://www.w3.org/2000/svg" p-id="1191" width="64" height="64"><path d="M516.352 951.5008a441.8048 441.8048 0 1 1 441.7536-441.8048v0.9216l-0.4096 16.9472v2.816c-6.7072 65.0752-40.96 142.6432-164.4032 142.6432-98.6112 0-143.0016-77.6192-143.0016-132.7616V358.4a35.84 35.84 0 1 1 71.68 0v182.0672c0 12.9024 12.1344 61.0816 71.3216 61.0816 61.44 0 86.784-20.8896 92.9792-76.8l0.3584-15.0528a370.0224 370.0224 0 1 0-73.728 222.1568 35.84 35.84 0 0 1 57.344 43.008 438.4256 438.4256 0 0 1-353.8944 176.64z" fill="#434A54" p-id="1192"></path><path d="M516.352 711.68a202.0864 202.0864 0 1 1 202.0352-202.0864A202.2912 202.2912 0 0 1 516.352 711.68z m0-332.4416a130.4064 130.4064 0 1 0 130.3552 130.3552 130.5088 130.5088 0 0 0-130.3552-130.2528z" fill="#7BD3FF" p-id="1193"></path></svg>
